<svg xmlns="http://www.w3.org/2000/svg" xmlns:xlink="http://www.w3.org/1999/xlink" width="24" height="24" viewBox="0 0 24 24"><defs><style>.a,.b,.d{fill:#fff;}.a,.b{stroke:#707070;}.b{opacity:0;}.c{clip-path:url(#a);}.e{stroke:none;}.f{fill:none;}</style><clipPath id="a"><rect class="a" width="20" height="20" transform="translate(885 1300)"/></clipPath></defs><g transform="translate(-883 -1298)"><g class="b" transform="translate(883 1298)"><rect class="e" width="24" height="24"/><rect class="f" x="0.5" y="0.5" width="23" height="23"/></g><g class="c"><g transform="translate(885 1300)"><path class="d" d="M19.663,13.412a1.115,1.115,0,0,0-.817-.337H13.269l-1.633,1.633a2.317,2.317,0,0,1-3.267,0L6.748,13.075H1.153a1.115,1.115,0,0,0-.817.337A1.122,1.122,0,0,0,0,14.229v3.848a1.115,1.115,0,0,0,.337.817,1.115,1.115,0,0,0,.817.337H18.847A1.15,1.15,0,0,0,20,18.076V14.229A1.122,1.122,0,0,0,19.663,13.412Zm-4.509,4.05a.741.741,0,0,1-.543.227.766.766,0,0,1,0-1.532.755.755,0,0,1,.543.227.752.752,0,0,1,0,1.078Zm3.077,0a.752.752,0,1,1,.227-.539A.739.739,0,0,1,18.232,17.462Z"/><path class="d" d="M9.459,13.618a.752.752,0,0,0,1.078,0l5.384-5.384a.7.7,0,0,0,.168-.842.715.715,0,0,0-.707-.467H12.3V1.537A.739.739,0,0,0,12.077,1,.739.739,0,0,0,11.539.77H8.461A.739.739,0,0,0,7.923,1a.739.739,0,0,0-.227.539V6.921H4.618a.715.715,0,0,0-.707.467.7.7,0,0,0,.168.842Z"/></g></g></g></svg>